# xmcd
#
# Track frame offsets:
#	150
#	17340
#	28807
#	42122
#	53565
#	71125
#	90692
#	103802
#	117467
#	132217
#
# Disc length: 1989 seconds
#
# Revision: 1
# Processed by: cddbd v1.5.2PL0 Copyright (c) Steve Scherf et al.
# Submitted via: audiograbber 1.83.01
#
DISCID=8207c30a
DTITLE=Kingsmen - Ridin' High
DYEAR=1994
DGENRE=Southern Gospel
TTITLE0=I Will Rise Up From My Grave
TTITLE1=Ridin' High
TTITLE2=Jesus Has His Hand On Me
TTITLE3=I'm Ready To Go
TTITLE4=I Must Tell Jesus
TTITLE5=My God Forgets
TTITLE6=A Song To Sing
TTITLE7=Let Me Walk Lord By Your Side
TTITLE8=God Know What He's Doing
TTITLE9=Jesus, You've Been On My Mind
EXTD=
EXTT0=
EXTT1=
EXTT2=
EXTT3=
EXTT4=
EXTT5=
EXTT6=
EXTT7=
EXTT8=
EXTT9=
PLAYORDER=
